<svg width="520" height="520" viewBox="0 0 520 520" fill="none" xmlns="http://www.w3.org/2000/svg">
<rect width="520" height="520" rx="260" fill="white"/>
<path d="M308.778 36.5975C308.778 36.2744 308.98 36.5567 311.4 40.5542C320.111 54.929 327.371 69.0618 333.703 83.9616C339.43 97.4482 340.519 102.577 342.334 124.138C343.1 133.628 342.98 162.58 342.092 170.575C341.044 180.225 341.85 178.974 335.68 180.993C324.144 184.707 310.916 190.805 296.88 198.881C288.896 203.483 286.192 205.179 286.192 205.664C286.192 205.906 286.636 206.552 287.16 207.158L288.088 208.289L292.282 207.805C303.091 206.512 311.762 205.664 320.272 205.099C333.138 204.211 357.58 203.605 366.09 203.928L373.229 204.17L373.712 201.424C375.81 189.432 376.738 170.292 375.77 160.238C374.6 148.609 371.172 133.224 366.735 119.778C365.971 117.523 365.407 115.669 365.444 115.659C365.525 115.659 367.018 117.799 368.792 120.384C381.578 139.402 388.353 158.704 390.289 181.679C390.975 189.836 390.289 219.555 389.362 220.443C389.24 220.604 388.27 220.483 379.158 219.272C373.229 218.505 359.516 217.213 349.514 216.526C341.084 215.921 295.389 215.799 290.951 216.324L288.208 216.688L287.402 218.505C286.958 219.514 286.717 220.483 286.837 220.685C286.959 220.887 287.725 221.048 288.572 221.048C290.992 221.048 301.236 222.179 311.198 223.512C346.77 228.357 385.893 237.119 413.278 246.407C416.545 247.497 419.448 248.586 419.772 248.748C420.296 249.071 420.014 251.172 417.876 263.245C407.43 321.875 395.734 365.848 384.764 387.41C377.423 401.946 362.097 424.114 340.076 452.016C330.114 464.655 320.353 475.96 314.586 481.493C311.924 484.037 311.924 484.077 313.456 482.098C329.549 461.99 350.401 425.891 361.412 399.12C367.582 384.14 371.132 372.389 376.697 348.444C381.174 329.345 384.28 311.054 387.426 285.251C388.676 274.755 389.926 260.99 389.644 260.661C388.958 259.974 367.703 251.656 356.773 247.82C334.792 240.067 306.116 231.708 284.74 226.903C284.014 226.742 283.732 227.025 283.208 228.357C282.845 229.286 282.562 230.053 282.643 230.093C282.729 230.136 285.67 231.508 289.217 233.122C327.572 250.646 353.224 263.527 366.776 272.047L369.276 273.622V275.6C369.276 279.84 364.84 318.16 362.782 331.485C359.637 352.28 354.676 370.733 347.094 390.237C343.181 400.291 334.832 417.774 330.356 425.366C327.331 430.494 321.725 439.497 321.24 440.064C321.079 440.266 321.644 438.529 322.572 436.228C333.663 407.962 335.155 403.602 338.826 389.226C343.423 371.178 346.085 354.42 347.497 334.715C347.739 331.364 348.304 323.369 348.747 316.949C349.231 310.206 349.675 299.505 349.796 291.712L349.957 278.185L347.416 276.489C338.866 270.836 331.848 266.394 317.046 257.188C312.206 254.2 299.098 246.447 289.62 241.036C285.869 238.856 282.199 236.756 281.473 236.312L280.182 235.545L279.578 236.715L278.973 237.886L283.086 240.632C291.717 246.366 296.557 250.081 308.052 259.691L313.94 264.658L314.223 268.13C314.626 273.016 314.182 303.784 313.618 309.68C313.214 313.96 312.972 314.93 311.561 317.958C305.592 330.637 291.596 346.304 275.06 358.862C270.906 362.012 263.647 366.614 261.267 367.584C260.017 368.109 259.775 368.068 257.032 366.614C248.724 362.254 239.568 355.147 228.961 344.81C220.169 336.25 213.03 326.963 208.956 318.846C206.778 314.485 206.617 313.274 205.931 299.788C205.487 289.894 205.407 277.337 205.81 269.907L206.052 264.86L210.327 261.185C220.007 252.867 230.937 244.509 239.326 239.098C241.181 237.886 241.222 237.806 240.496 236.514C240.012 235.625 239.89 235.666 232.147 240.107C218.837 247.658 205.971 255.33 192.823 263.567C174.996 274.752 170.479 277.821 170.197 279.033C169.794 280.691 170.359 302.857 171.004 311.699C171.366 315.898 171.81 322.44 172.052 326.236C174.271 362.334 179.473 388.984 189.516 415.473C194.033 427.385 198.51 438.852 199.075 439.943C200.245 442.123 198.671 439.902 195.566 434.936C175.884 403.36 162.978 368.512 157.331 331.687C155.234 317.999 150.716 278.912 150.676 274.268C150.678 272.289 184.798 254.32 214.603 240.632C221.701 237.362 228.88 234.051 230.534 233.284C232.187 232.516 234.406 231.507 235.495 231.063C236.543 230.618 237.391 230.053 237.391 229.851C237.39 229.649 237.108 228.882 236.785 228.074C236.301 226.945 236.059 226.701 235.293 226.903C202.1 234.494 160.638 247.699 133.535 259.247L130.268 260.661L130.994 268.817C133.091 293.125 137.568 322.521 142.448 344.366C149.789 377.234 155.758 394.719 167.777 418.905C172.092 427.546 178.102 438.772 180.482 442.729C181.127 443.738 182.942 446.807 184.555 449.593C190.04 458.961 199.357 472.69 207.061 482.704C209.4 485.773 199.236 475.153 194.275 469.379C184.434 457.912 167.939 436.793 157.895 422.741C144.747 404.369 136.761 391.447 132.728 381.958C124.218 362.012 116.233 333.504 108.086 293.933C104.536 276.691 99.6561 249.556 100.019 248.951C100.347 248.463 114.621 243.741 123.25 241.278C153.661 232.597 189.919 225.49 222.467 221.856C226.339 221.412 230.292 221.048 231.26 221.048C233.397 221.048 233.68 220.443 232.591 218.303C231.945 217.051 231.461 216.647 230.453 216.446C227.549 215.921 188.347 215.678 178.505 216.163C163.422 216.889 147.047 218.343 134.987 220.039C132.689 220.361 130.713 220.604 130.671 220.523C130.591 220.443 130.309 217.495 130.026 213.982C129.381 205.503 129.381 184.182 130.026 178.449C132.366 157.775 138.818 139.644 149.789 122.725C153.539 116.951 155.032 114.932 154.548 116.265C154.386 116.709 153.257 120.262 152.088 124.138C147.933 137.545 145.15 150.951 144.182 162.095C143.336 171.786 144.303 189.028 146.36 200.859L146.845 203.847L163.784 203.928C186.934 204.049 202.423 204.897 221.943 207.158C226.863 207.724 231.259 208.127 231.744 208.047C232.187 207.966 232.954 207.36 233.397 206.633L234.204 205.381L229.848 202.757C219.281 196.417 207.02 189.957 198.873 186.444C193.952 184.304 184.676 180.872 181.692 180.064L178.989 179.377L178.546 175.259C177.537 166.173 177.295 160.844 177.295 146.751C177.295 132.053 177.779 122.24 179.11 110.208C180.482 98.2153 182.982 90.7452 192.218 71.2424C194.678 66.0337 197.622 60.0172 198.752 57.9174C201.535 52.6686 210.85 36.8425 211.013 37.0008C211.094 37.0815 210.045 39.949 208.755 43.3812C204.279 54.9294 201.737 63.2474 198.671 76.2898C194.437 94.4602 192.138 116.225 193.065 129.468C193.913 141.825 196.534 167.789 196.977 168.192C197.301 168.515 215.167 181.195 225.412 188.341C229.324 191.127 234.043 194.439 235.858 195.691C237.673 196.982 239.245 198.033 239.407 198.033C239.568 198.033 240.254 197.225 240.98 196.215L242.311 194.358L238.923 190.845C235.817 187.574 231.905 182.81 231.502 181.72C231.26 181.073 235.979 175.299 239.245 172.231C243.601 168.152 249.289 164.235 250.297 164.599C250.498 164.68 249.732 166.254 248.603 168.152C244.852 174.411 243.642 178.57 244.691 181.356C245.336 183.092 247.837 185.515 250.095 186.565C251.991 187.493 252.515 187.534 260.138 187.534C267.922 187.534 268.164 187.493 270.22 186.484C272.6 185.273 273.81 184.264 274.98 182.366C275.665 181.235 275.786 180.548 275.625 178.287C275.423 175.421 273.729 171.503 270.664 166.699C269.898 165.487 269.455 164.518 269.737 164.518C270.463 164.518 274.496 166.901 276.916 168.798C280.707 171.746 288.612 180.306 288.612 181.437C288.611 182.205 284.175 187.818 280.828 191.33L277.803 194.519L279.053 196.256C279.779 197.225 280.505 197.992 280.707 198.033C280.909 198.033 282.804 196.781 284.942 195.287C287.079 193.752 291.274 190.805 294.258 188.665C313.86 174.855 322.37 168.798 322.814 168.354C323.499 167.707 324.185 162.134 326.605 136.252C327.25 129.307 327.25 115.054 326.564 107.987C324.467 85.0521 318.942 62.1972 310.23 40.3926C309.424 38.4165 308.779 36.6821 308.778 36.5975ZM226.667 281.183V323.548L259.999 344.73L293.333 323.548V281.183L259.999 260L226.667 281.183ZM286.666 286.02V318.043L260 334.055L233.333 318.043V286.02L260 270.008L286.666 286.02ZM239.999 290.233V313.83L260 325.628L280 313.83V290.233L260 278.435L239.999 290.233Z" fill="black"/>
<path d="M250.698 184.277C250.431 185.878 251.92 189.169 252.698 190.615H255.031L252.698 179.94C252.142 180.719 250.964 182.676 250.698 184.277Z" fill="black"/>
<path d="M268.666 184.277C268.933 185.878 267.444 189.169 266.666 190.615H264.333L266.666 179.94C267.222 180.719 268.4 182.676 268.666 184.277Z" fill="black"/>
</svg>
